<?xml version="1.0" standalone="no"?>
<!DOCTYPE svg PUBLIC "-//W3C//DTD SVG 20010904//EN"
 "http://www.w3.org/TR/2001/REC-SVG-20010904/DTD/svg10.dtd">
<svg version="1.0" xmlns="http://www.w3.org/2000/svg"
 width="1280.000000pt" height="840.000000pt" viewBox="0 0 1280.000000 840.000000"
 preserveAspectRatio="xMidYMid meet">
<metadata>
Created by potrace 1.15, written by Peter Selinger 2001-2017
</metadata>
<g transform="translate(0.000000,840.000000) scale(0.100000,-0.100000)"
fill="#03a9f4" stroke="none">
<path d="M4207 8389 c-933 -82 -1705 -589 -2102 -1380 -133 -264 -225 -576
-259 -874 l-11 -100 -70 -23 c-352 -117 -594 -230 -830 -388 -433 -289 -721
-640 -855 -1043 -242 -728 81 -1483 855 -1997 210 -140 475 -271 698 -344 42
-14 73 -30 81 -43 7 -12 34 -60 61 -107 271 -480 846 -867 1537 -1034 529
-128 1045 -136 1596 -24 l154 31 66 -65 c322 -311 766 -571 1274 -746 1260
-435 2788 -295 3878 355 256 153 454 306 650 502 140 140 217 234 326 398 154
230 267 501 315 755 l21 114 72 39 c463 251 844 644 1011 1044 374 892 -117
1837 -1221 2348 -215 100 -527 200 -775 248 -73 14 -135 29 -137 33 -1 4 -26
51 -55 104 -188 339 -475 600 -882 799 -667 326 -1505 382 -2357 158 l-117
-31 -153 157 c-332 343 -648 574 -1057 774 -547 267 -1162 389 -1714 340z"/>
</g>
</svg>
